# xmcd
#
# Track frame offsets:
#	150
#	13990
#	35013
#	51941
#	69121
#	86603
#	104792
#	115198
#	129085
#	151890
#	174730
#	195546
#	214655
#	239547
#	256205
#
# Disc length: 3625 seconds
#
# Revision: 0
# Processed by: cddbd v1.5.2PL0 Copyright (c) Steve Scherf et al.
# Submitted via: EZCDAudioConverter 3.1.7.1
#
DISCID=ce0e270f
DTITLE=Fredi Nest - Sing John Denver
DYEAR=1900
DGENRE=
TTITLE0=Annie's Song
TTITLE1=Back Home again
TTITLE2=Calypso
TTITLE3=Leaving on a Jet Plane
TTITLE4=Some Days are Diamonds
TTITLE5=Fly Away
TTITLE6=Grandmas Feather Bed
TTITLE7=Take me home, Country Raods
TTITLE8=Sweet Surrender
TTITLE9=Rocky Mountain High
TTITLE10=My Sweet Lady
TTITLE11=A song for All lovers
TTITLE12=Sunshine on my Shouldners
TTITLE13=I'm Sorry
TTITLE14=You say the Battle is Over
EXTD=
EXTT0=
EXTT1=
EXTT2=
EXTT3=
EXTT4=
EXTT5=
EXTT6=
EXTT7=
EXTT8=
EXTT9=
EXTT10=
EXTT11=
EXTT12=
EXTT13=
EXTT14=
PLAYORDER=
